<?xml version="1.0" standalone="no"?>
<!DOCTYPE svg PUBLIC "-//W3C//DTD SVG 20010904//EN"
 "http://www.w3.org/TR/2001/REC-SVG-20010904/DTD/svg10.dtd">
<svg version="1.0" xmlns="http://www.w3.org/2000/svg"
 width="400.000000pt" height="400.000000pt" viewBox="0 0 400.000000 400.000000"
 preserveAspectRatio="xMidYMid meet">
<metadata>
Created by potrace 1.11, written by Peter Selinger 2001-2013
</metadata>
<g transform="translate(0.000000,400.000000) scale(0.100000,-0.100000)"
fill="#000000" stroke="none">
<path d="M1499 3921 c-48 -16 -79 -43 -90 -80 -9 -31 -4 -63 37 -236 45 -192
47 -208 53 -395 3 -107 9 -200 13 -206 15 -23 59 -357 56 -427 -3 -65 -5 -72
-25 -75 -31 -5 -49 30 -58 108 -12 118 -36 213 -82 325 -79 190 -131 360 -149
485 -3 25 -17 82 -30 126 -35 118 -76 154 -174 154 -60 0 -97 -13 -132 -47
-50 -48 -53 -76 -18 -215 17 -67 46 -172 64 -233 40 -127 52 -185 65 -310 8
-73 19 -112 59 -205 51 -120 72 -184 92 -283 15 -77 -1 -107 -59 -107 -46 0
-47 1 -203 211 -59 79 -129 172 -156 207 -27 34 -71 106 -98 158 -74 145 -146
219 -219 225 -63 5 -86 -2 -122 -35 -33 -30 -37 -39 -37 -82 0 -60 76 -236
136 -316 21 -29 67 -100 100 -158 34 -58 83 -131 109 -162 58 -70 123 -178
150 -247 10 -28 26 -93 34 -144 8 -50 21 -126 29 -167 8 -41 20 -149 25 -240
18 -274 34 -349 116 -533 41 -93 62 -161 90 -287 35 -156 37 -172 30 -280 -3
-66 -1 -186 6 -282 l13 -168 593 0 593 0 -3 298 c-3 401 1 412 175 529 57 38
140 95 186 127 98 66 170 104 269 140 143 51 190 87 227 176 82 198 151 302
251 374 32 22 90 70 129 104 39 35 108 89 153 119 165 108 183 192 59 259
-102 56 -261 43 -416 -33 -64 -31 -96 -58 -221 -182 -163 -164 -229 -209 -311
-218 l-53 -5 -68 64 c-63 59 -70 69 -98 153 -37 109 -49 172 -89 468 -12 90 0
280 29 482 13 86 16 138 10 163 -5 20 -9 114 -9 207 0 246 -16 395 -47 443
-71 110 -227 122 -275 22 -23 -48 -38 -167 -43 -356 -3 -104 -10 -178 -21
-214 -11 -37 -17 -106 -20 -213 -4 -168 -27 -343 -49 -366 -19 -20 -100 -6
-125 22 -18 18 -20 35 -20 151 0 244 -16 396 -59 556 -22 80 -49 195 -61 255
-52 265 -84 346 -150 380 -35 18 -126 27 -161 16z"/>
</g>
</svg>
